<svg xmlns="http://www.w3.org/2000/svg" viewBox="0 0 310.78 149.05"><defs><style>.cls-1{fill:#fefc26;}.cls-2,.cls-3{fill:none;stroke-miterlimit:10;}.cls-2{stroke:#fefc26;stroke-width:6px;}.cls-3{stroke:#204793;stroke-width:3px;}</style></defs><g id="Lager_2" data-name="Lager 2"><g id="Lager_1-2" data-name="Lager 1"><polygon class="cls-1" points="310.36 66.12 105.61 66.28 87.27 11.44 310.36 11.44 310.36 66.12"/><path class="cls-1" d="M47,149.05,7.85,137.9c-3.06-6.05-4.78-9.44-7.85-15.49L39.69,32.68,87.61,11.55,98.88,65,65.26,141Z"/><path class="cls-2" d="M122.67,87.62H76.33V66.33H144A21.29,21.29,0,0,1,122.67,87.62Z"/><polygon class="cls-1" points="203.44 9.18 90.93 9.32 111.8 0 203.44 0 203.44 9.18"/><polygon class="cls-1" points="209.57 70.21 146.09 70.21 146.09 74.8 191.71 74.8 209.57 70.21"/><rect class="cls-1" x="88.23" y="12.27" width="21.71" height="53.43"/><line class="cls-3" x1="310.78" y1="18.5" x2="90.74" y2="18.32"/><line class="cls-3" x1="43.36" y1="39.2" x2="90.95" y2="18.32"/><line class="cls-3" x1="2.78" y1="130.5" x2="43.78" y2="38.5"/></g></g></svg>